<mxfile host="65bd71144e">
    <diagram id="0_36AyiPpL1qv0VAX9Es" name="Singleton">
        <mxGraphModel dx="473" dy="290" grid="1" gridSize="10" guides="1" tooltips="1" connect="1" arrows="1" fold="1" page="1" pageScale="1" pageWidth="827" pageHeight="1169" math="0" shadow="0">
            <root>
                <mxCell id="0"/>
                <mxCell id="1" parent="0"/>
                <mxCell id="11" value="Singleton" style="swimlane;fontStyle=1;align=center;verticalAlign=top;childLayout=stackLayout;horizontal=1;startSize=26;horizontalStack=0;resizeParent=1;resizeParentMax=0;resizeLast=0;collapsible=1;marginBottom=0;" parent="1" vertex="1">
                    <mxGeometry x="90" y="110" width="160" height="110" as="geometry"/>
                </mxCell>
                <mxCell id="12" value="- instance: Singleton" style="text;strokeColor=none;fillColor=none;align=left;verticalAlign=top;spacingLeft=4;spacingRight=4;overflow=hidden;rotatable=0;points=[[0,0.5],[1,0.5]];portConstraint=eastwest;fontStyle=4" parent="11" vertex="1">
                    <mxGeometry y="26" width="160" height="26" as="geometry"/>
                </mxCell>
                <mxCell id="13" value="" style="line;strokeWidth=1;fillColor=none;align=left;verticalAlign=middle;spacingTop=-1;spacingLeft=3;spacingRight=3;rotatable=0;labelPosition=right;points=[];portConstraint=eastwest;" parent="11" vertex="1">
                    <mxGeometry y="52" width="160" height="8" as="geometry"/>
                </mxCell>
                <mxCell id="15" value="- constructor()" style="text;strokeColor=none;fillColor=none;align=left;verticalAlign=top;spacingLeft=4;spacingRight=4;overflow=hidden;rotatable=0;points=[[0,0.5],[1,0.5]];portConstraint=eastwest;fontStyle=0" parent="11" vertex="1">
                    <mxGeometry y="60" width="160" height="20" as="geometry"/>
                </mxCell>
                <mxCell id="14" value="+ getInstance(): Singleton" style="text;strokeColor=none;fillColor=none;align=left;verticalAlign=top;spacingLeft=4;spacingRight=4;overflow=hidden;rotatable=0;points=[[0,0.5],[1,0.5]];portConstraint=eastwest;fontStyle=4;horizontal=1;" parent="11" vertex="1">
                    <mxGeometry y="80" width="160" height="30" as="geometry"/>
                </mxCell>
                <mxCell id="zbK2dsjU6Ic2HSl0Ty1O-15" value="Object" style="html=1;" vertex="1" parent="1">
                    <mxGeometry x="140" y="300" width="110" height="50" as="geometry"/>
                </mxCell>
                <mxCell id="zbK2dsjU6Ic2HSl0Ty1O-17" value="" style="endArrow=diamondThin;endFill=0;endSize=24;html=1;" edge="1" parent="1">
                    <mxGeometry width="160" relative="1" as="geometry">
                        <mxPoint x="120" y="270" as="sourcePoint"/>
                        <mxPoint x="280" y="270" as="targetPoint"/>
                    </mxGeometry>
                </mxCell>
            </root>
        </mxGraphModel>
    </diagram>
    <diagram id="66cb3W56JvpG_HN4hzBL" name="Prototype">
        <mxGraphModel dx="619" dy="380" grid="0" gridSize="10" guides="1" tooltips="1" connect="1" arrows="1" fold="1" page="1" pageScale="1" pageWidth="827" pageHeight="1169" math="0" shadow="0">
            <root>
                <mxCell id="6yKtJIGFvQrPZvY3EZ4h-0"/>
                <mxCell id="6yKtJIGFvQrPZvY3EZ4h-1" parent="6yKtJIGFvQrPZvY3EZ4h-0"/>
                <mxCell id="0oBmJN-DgtzwoFzoIPtv-0" value="Prototype&#10;" style="swimlane;fontStyle=1;align=center;verticalAlign=top;childLayout=stackLayout;horizontal=1;startSize=26;horizontalStack=0;resizeParent=1;resizeParentMax=0;resizeLast=0;collapsible=1;marginBottom=0;rounded=1;" parent="6yKtJIGFvQrPZvY3EZ4h-1" vertex="1">
                    <mxGeometry x="160" y="40" width="160" height="103" as="geometry"/>
                </mxCell>
                <mxCell id="0oBmJN-DgtzwoFzoIPtv-1" value="+ ..." style="text;strokeColor=none;fillColor=none;align=left;verticalAlign=top;spacingLeft=4;spacingRight=4;overflow=hidden;rotatable=0;points=[[0,0.5],[1,0.5]];portConstraint=eastwest;rounded=1;" parent="0oBmJN-DgtzwoFzoIPtv-0" vertex="1">
                    <mxGeometry y="26" width="160" height="26" as="geometry"/>
                </mxCell>
                <mxCell id="0oBmJN-DgtzwoFzoIPtv-2" value="" style="line;strokeWidth=1;fillColor=none;align=left;verticalAlign=middle;spacingTop=-1;spacingLeft=3;spacingRight=3;rotatable=0;labelPosition=right;points=[];portConstraint=eastwest;rounded=1;" parent="0oBmJN-DgtzwoFzoIPtv-0" vertex="1">
                    <mxGeometry y="52" width="160" height="8" as="geometry"/>
                </mxCell>
                <mxCell id="0oBmJN-DgtzwoFzoIPtv-3" value="+ constructor(...)&#10;+ getClone():Prototype" style="text;strokeColor=none;fillColor=none;align=left;verticalAlign=top;spacingLeft=4;spacingRight=4;overflow=hidden;rotatable=0;points=[[0,0.5],[1,0.5]];portConstraint=eastwest;rounded=1;" parent="0oBmJN-DgtzwoFzoIPtv-0" vertex="1">
                    <mxGeometry y="60" width="160" height="43" as="geometry"/>
                </mxCell>
                <mxCell id="0oBmJN-DgtzwoFzoIPtv-4" value="" style="endArrow=open;endFill=1;endSize=12;html=1;exitX=0.499;exitY=1.061;exitDx=0;exitDy=0;exitPerimeter=0;" parent="6yKtJIGFvQrPZvY3EZ4h-1" source="0oBmJN-DgtzwoFzoIPtv-3" edge="1">
                    <mxGeometry width="160" relative="1" as="geometry">
                        <mxPoint x="240" y="144" as="sourcePoint"/>
                        <mxPoint x="239.5" y="196" as="targetPoint"/>
                    </mxGeometry>
                </mxCell>
                <mxCell id="0oBmJN-DgtzwoFzoIPtv-5" value="prototype1" style="html=1;rounded=1;" parent="6yKtJIGFvQrPZvY3EZ4h-1" vertex="1">
                    <mxGeometry x="185" y="197" width="110" height="50" as="geometry"/>
                </mxCell>
                <mxCell id="0oBmJN-DgtzwoFzoIPtv-9" value="clone" style="html=1;rounded=1;" parent="6yKtJIGFvQrPZvY3EZ4h-1" vertex="1">
                    <mxGeometry x="181" y="299" width="110" height="50" as="geometry"/>
                </mxCell>
                <mxCell id="unWKqBvvgrbuQsEOBLpE-0" value="" style="endArrow=open;endFill=1;endSize=12;html=1;exitX=0.499;exitY=1.061;exitDx=0;exitDy=0;exitPerimeter=0;" edge="1" parent="6yKtJIGFvQrPZvY3EZ4h-1">
                    <mxGeometry width="160" relative="1" as="geometry">
                        <mxPoint x="236.34000000000003" y="247.00300000000004" as="sourcePoint"/>
                        <mxPoint x="236.0000000000001" y="297.38" as="targetPoint"/>
                    </mxGeometry>
                </mxCell>
            </root>
        </mxGraphModel>
    </diagram>
    <diagram id="60HgzlhuvY6vDQpjHbS_" name="Builder">
        <mxGraphModel dx="898" dy="551" grid="1" gridSize="10" guides="1" tooltips="1" connect="1" arrows="1" fold="1" page="1" pageScale="1" pageWidth="827" pageHeight="1169" math="0" shadow="0">
            <root>
                <mxCell id="9k8CHPFHaFTE7FAt72N5-0"/>
                <mxCell id="9k8CHPFHaFTE7FAt72N5-1" parent="9k8CHPFHaFTE7FAt72N5-0"/>
                <mxCell id="ReBu9o5RKsYhsSD_64CJ-0" value="House" style="swimlane;fontStyle=1;align=center;verticalAlign=top;childLayout=stackLayout;horizontal=1;startSize=26;horizontalStack=0;resizeParent=1;resizeParentMax=0;resizeLast=0;collapsible=1;marginBottom=0;" parent="9k8CHPFHaFTE7FAt72N5-1" vertex="1">
                    <mxGeometry x="200" y="160" width="160" height="86" as="geometry"/>
                </mxCell>
                <mxCell id="ReBu9o5RKsYhsSD_64CJ-1" value="+ ..." style="text;strokeColor=none;fillColor=none;align=left;verticalAlign=top;spacingLeft=4;spacingRight=4;overflow=hidden;rotatable=0;points=[[0,0.5],[1,0.5]];portConstraint=eastwest;" parent="ReBu9o5RKsYhsSD_64CJ-0" vertex="1">
                    <mxGeometry y="26" width="160" height="26" as="geometry"/>
                </mxCell>
                <mxCell id="ReBu9o5RKsYhsSD_64CJ-2" value="" style="line;strokeWidth=1;fillColor=none;align=left;verticalAlign=middle;spacingTop=-1;spacingLeft=3;spacingRight=3;rotatable=0;labelPosition=right;points=[];portConstraint=eastwest;" parent="ReBu9o5RKsYhsSD_64CJ-0" vertex="1">
                    <mxGeometry y="52" width="160" height="8" as="geometry"/>
                </mxCell>
                <mxCell id="ReBu9o5RKsYhsSD_64CJ-3" value="+ constructor(...)" style="text;strokeColor=none;fillColor=none;align=left;verticalAlign=top;spacingLeft=4;spacingRight=4;overflow=hidden;rotatable=0;points=[[0,0.5],[1,0.5]];portConstraint=eastwest;" parent="ReBu9o5RKsYhsSD_64CJ-0" vertex="1">
                    <mxGeometry y="60" width="160" height="26" as="geometry"/>
                </mxCell>
                <mxCell id="ReBu9o5RKsYhsSD_64CJ-23" style="edgeStyle=none;html=1;entryX=0.5;entryY=0;entryDx=0;entryDy=0;" parent="9k8CHPFHaFTE7FAt72N5-1" source="ReBu9o5RKsYhsSD_64CJ-4" target="ReBu9o5RKsYhsSD_64CJ-9" edge="1">
                    <mxGeometry relative="1" as="geometry"/>
                </mxCell>
                <mxCell id="ReBu9o5RKsYhsSD_64CJ-24" style="edgeStyle=none;html=1;entryX=0.5;entryY=0;entryDx=0;entryDy=0;" parent="9k8CHPFHaFTE7FAt72N5-1" source="ReBu9o5RKsYhsSD_64CJ-4" target="ReBu9o5RKsYhsSD_64CJ-10" edge="1">
                    <mxGeometry relative="1" as="geometry"/>
                </mxCell>
                <mxCell id="ReBu9o5RKsYhsSD_64CJ-4" value="HouseBuilder" style="swimlane;fontStyle=1;align=center;verticalAlign=top;childLayout=stackLayout;horizontal=1;startSize=26;horizontalStack=0;resizeParent=1;resizeParentMax=0;resizeLast=0;collapsible=1;marginBottom=0;" parent="9k8CHPFHaFTE7FAt72N5-1" vertex="1">
                    <mxGeometry x="200" y="320" width="160" height="150" as="geometry"/>
                </mxCell>
                <mxCell id="ReBu9o5RKsYhsSD_64CJ-5" value="+ house: House" style="text;strokeColor=none;fillColor=none;align=left;verticalAlign=top;spacingLeft=4;spacingRight=4;overflow=hidden;rotatable=0;points=[[0,0.5],[1,0.5]];portConstraint=eastwest;" parent="ReBu9o5RKsYhsSD_64CJ-4" vertex="1">
                    <mxGeometry y="26" width="160" height="26" as="geometry"/>
                </mxCell>
                <mxCell id="ReBu9o5RKsYhsSD_64CJ-6" value="" style="line;strokeWidth=1;fillColor=none;align=left;verticalAlign=middle;spacingTop=-1;spacingLeft=3;spacingRight=3;rotatable=0;labelPosition=right;points=[];portConstraint=eastwest;" parent="ReBu9o5RKsYhsSD_64CJ-4" vertex="1">
                    <mxGeometry y="52" width="160" height="8" as="geometry"/>
                </mxCell>
                <mxCell id="ReBu9o5RKsYhsSD_64CJ-7" value="+ setDoors(number):this&#10;+ setWindows(number):this&#10;+ setRooms(string[]):this&#10;+ setGarage():this&#10;+ build():this.house" style="text;strokeColor=none;fillColor=none;align=left;verticalAlign=top;spacingLeft=4;spacingRight=4;overflow=hidden;rotatable=0;points=[[0,0.5],[1,0.5]];portConstraint=eastwest;" parent="ReBu9o5RKsYhsSD_64CJ-4" vertex="1">
                    <mxGeometry y="60" width="160" height="90" as="geometry"/>
                </mxCell>
                <mxCell id="ReBu9o5RKsYhsSD_64CJ-9" value="house2" style="html=1;" parent="9k8CHPFHaFTE7FAt72N5-1" vertex="1">
                    <mxGeometry x="130" y="520" width="110" height="50" as="geometry"/>
                </mxCell>
                <mxCell id="ReBu9o5RKsYhsSD_64CJ-10" value="house3" style="html=1;" parent="9k8CHPFHaFTE7FAt72N5-1" vertex="1">
                    <mxGeometry x="304" y="520" width="110" height="50" as="geometry"/>
                </mxCell>
                <mxCell id="ReBu9o5RKsYhsSD_64CJ-11" value="house1" style="html=1;" parent="9k8CHPFHaFTE7FAt72N5-1" vertex="1">
                    <mxGeometry x="430" y="174" width="110" height="50" as="geometry"/>
                </mxCell>
                <mxCell id="ReBu9o5RKsYhsSD_64CJ-12" style="edgeStyle=none;html=1;exitX=1;exitY=0.5;exitDx=0;exitDy=0;entryX=0;entryY=0.5;entryDx=0;entryDy=0;" parent="9k8CHPFHaFTE7FAt72N5-1" source="ReBu9o5RKsYhsSD_64CJ-1" target="ReBu9o5RKsYhsSD_64CJ-11" edge="1">
                    <mxGeometry relative="1" as="geometry"/>
                </mxCell>
                <mxCell id="ReBu9o5RKsYhsSD_64CJ-20" value="" style="endArrow=diamondThin;endFill=1;endSize=24;html=1;entryX=0.497;entryY=1.064;entryDx=0;entryDy=0;entryPerimeter=0;exitX=0.5;exitY=0;exitDx=0;exitDy=0;" parent="9k8CHPFHaFTE7FAt72N5-1" source="ReBu9o5RKsYhsSD_64CJ-4" target="ReBu9o5RKsYhsSD_64CJ-3" edge="1">
                    <mxGeometry width="160" relative="1" as="geometry">
                        <mxPoint x="40" y="420" as="sourcePoint"/>
                        <mxPoint x="200" y="420" as="targetPoint"/>
                    </mxGeometry>
                </mxCell>
            </root>
        </mxGraphModel>
    </diagram>
    <diagram id="JlwttirVI8NgvXsS92hw" name="Factory">
        <mxGraphModel dx="697" dy="551" grid="1" gridSize="10" guides="1" tooltips="1" connect="1" arrows="1" fold="1" page="1" pageScale="1" pageWidth="827" pageHeight="1169" math="0" shadow="0">
            <root>
                <mxCell id="dxG8stY99Rh0fZeCO41W-0"/>
                <mxCell id="dxG8stY99Rh0fZeCO41W-1" parent="dxG8stY99Rh0fZeCO41W-0"/>
                <mxCell id="cZgoPWFQi2ox0ArFL1Ln-0" value="«interface»&lt;br&gt;Dishes" style="html=1;" parent="dxG8stY99Rh0fZeCO41W-1" vertex="1">
                    <mxGeometry x="610" y="200" width="110" height="50" as="geometry"/>
                </mxCell>
                <mxCell id="cZgoPWFQi2ox0ArFL1Ln-1" value="food1" style="html=1;" parent="dxG8stY99Rh0fZeCO41W-1" vertex="1">
                    <mxGeometry x="540" y="330" width="110" height="50" as="geometry"/>
                </mxCell>
                <mxCell id="cZgoPWFQi2ox0ArFL1Ln-4" value="food2" style="html=1;" parent="dxG8stY99Rh0fZeCO41W-1" vertex="1">
                    <mxGeometry x="680" y="330" width="110" height="50" as="geometry"/>
                </mxCell>
                <mxCell id="cZgoPWFQi2ox0ArFL1Ln-7" value="" style="endArrow=block;dashed=1;endFill=0;endSize=12;html=1;exitX=0.5;exitY=0;exitDx=0;exitDy=0;entryX=0.25;entryY=1;entryDx=0;entryDy=0;" parent="dxG8stY99Rh0fZeCO41W-1" source="cZgoPWFQi2ox0ArFL1Ln-1" target="cZgoPWFQi2ox0ArFL1Ln-0" edge="1">
                    <mxGeometry width="160" relative="1" as="geometry">
                        <mxPoint x="470" y="290" as="sourcePoint"/>
                        <mxPoint x="630" y="290" as="targetPoint"/>
                    </mxGeometry>
                </mxCell>
                <mxCell id="cZgoPWFQi2ox0ArFL1Ln-9" value="" style="endArrow=block;dashed=1;endFill=0;endSize=12;html=1;exitX=0.5;exitY=0;exitDx=0;exitDy=0;entryX=0.75;entryY=1;entryDx=0;entryDy=0;" parent="dxG8stY99Rh0fZeCO41W-1" source="cZgoPWFQi2ox0ArFL1Ln-4" target="cZgoPWFQi2ox0ArFL1Ln-0" edge="1">
                    <mxGeometry width="160" relative="1" as="geometry">
                        <mxPoint x="770" y="320" as="sourcePoint"/>
                        <mxPoint x="815" y="250" as="targetPoint"/>
                    </mxGeometry>
                </mxCell>
                <mxCell id="cZgoPWFQi2ox0ArFL1Ln-12" value="Chef" style="swimlane;fontStyle=3;align=center;verticalAlign=top;childLayout=stackLayout;horizontal=1;startSize=26;horizontalStack=0;resizeParent=1;resizeParentMax=0;resizeLast=0;collapsible=1;marginBottom=0;" parent="dxG8stY99Rh0fZeCO41W-1" vertex="1">
                    <mxGeometry x="130" y="195" width="160" height="60" as="geometry"/>
                </mxCell>
                <mxCell id="cZgoPWFQi2ox0ArFL1Ln-14" value="" style="line;strokeWidth=1;fillColor=none;align=left;verticalAlign=middle;spacingTop=-1;spacingLeft=3;spacingRight=3;rotatable=0;labelPosition=right;points=[];portConstraint=eastwest;" parent="cZgoPWFQi2ox0ArFL1Ln-12" vertex="1">
                    <mxGeometry y="26" width="160" height="8" as="geometry"/>
                </mxCell>
                <mxCell id="cZgoPWFQi2ox0ArFL1Ln-15" value="+ cookFood(name): Dishes" style="text;strokeColor=none;fillColor=none;align=left;verticalAlign=top;spacingLeft=4;spacingRight=4;overflow=hidden;rotatable=0;points=[[0,0.5],[1,0.5]];portConstraint=eastwest;fontStyle=2" parent="cZgoPWFQi2ox0ArFL1Ln-12" vertex="1">
                    <mxGeometry y="34" width="160" height="26" as="geometry"/>
                </mxCell>
                <mxCell id="cZgoPWFQi2ox0ArFL1Ln-16" value="" style="endArrow=open;endFill=1;endSize=12;html=1;exitX=1;exitY=0.5;exitDx=0;exitDy=0;entryX=0;entryY=0.5;entryDx=0;entryDy=0;" parent="dxG8stY99Rh0fZeCO41W-1" source="cZgoPWFQi2ox0ArFL1Ln-12" target="cZgoPWFQi2ox0ArFL1Ln-0" edge="1">
                    <mxGeometry width="160" relative="1" as="geometry">
                        <mxPoint x="290" y="224.38" as="sourcePoint"/>
                        <mxPoint x="450" y="224.38" as="targetPoint"/>
                    </mxGeometry>
                </mxCell>
                <mxCell id="cZgoPWFQi2ox0ArFL1Ln-17" value="ItalianChef" style="swimlane;fontStyle=1;align=center;verticalAlign=top;childLayout=stackLayout;horizontal=1;startSize=26;horizontalStack=0;resizeParent=1;resizeParentMax=0;resizeLast=0;collapsible=1;marginBottom=0;" parent="dxG8stY99Rh0fZeCO41W-1" vertex="1">
                    <mxGeometry x="10" y="310" width="160" height="60" as="geometry"/>
                </mxCell>
                <mxCell id="cZgoPWFQi2ox0ArFL1Ln-19" value="" style="line;strokeWidth=1;fillColor=none;align=left;verticalAlign=middle;spacingTop=-1;spacingLeft=3;spacingRight=3;rotatable=0;labelPosition=right;points=[];portConstraint=eastwest;" parent="cZgoPWFQi2ox0ArFL1Ln-17" vertex="1">
                    <mxGeometry y="26" width="160" height="8" as="geometry"/>
                </mxCell>
                <mxCell id="cZgoPWFQi2ox0ArFL1Ln-20" value="+ cookFood(name): Dishes" style="text;strokeColor=none;fillColor=none;align=left;verticalAlign=top;spacingLeft=4;spacingRight=4;overflow=hidden;rotatable=0;points=[[0,0.5],[1,0.5]];portConstraint=eastwest;fontStyle=0" parent="cZgoPWFQi2ox0ArFL1Ln-17" vertex="1">
                    <mxGeometry y="34" width="160" height="26" as="geometry"/>
                </mxCell>
                <mxCell id="cZgoPWFQi2ox0ArFL1Ln-21" value="UkrainianChef" style="swimlane;fontStyle=1;align=center;verticalAlign=top;childLayout=stackLayout;horizontal=1;startSize=26;horizontalStack=0;resizeParent=1;resizeParentMax=0;resizeLast=0;collapsible=1;marginBottom=0;" parent="dxG8stY99Rh0fZeCO41W-1" vertex="1">
                    <mxGeometry x="254" y="310" width="160" height="60" as="geometry"/>
                </mxCell>
                <mxCell id="cZgoPWFQi2ox0ArFL1Ln-22" value="" style="line;strokeWidth=1;fillColor=none;align=left;verticalAlign=middle;spacingTop=-1;spacingLeft=3;spacingRight=3;rotatable=0;labelPosition=right;points=[];portConstraint=eastwest;" parent="cZgoPWFQi2ox0ArFL1Ln-21" vertex="1">
                    <mxGeometry y="26" width="160" height="8" as="geometry"/>
                </mxCell>
                <mxCell id="cZgoPWFQi2ox0ArFL1Ln-23" value="+ cookFood(name): Dishes" style="text;strokeColor=none;fillColor=none;align=left;verticalAlign=top;spacingLeft=4;spacingRight=4;overflow=hidden;rotatable=0;points=[[0,0.5],[1,0.5]];portConstraint=eastwest;fontStyle=0" parent="cZgoPWFQi2ox0ArFL1Ln-21" vertex="1">
                    <mxGeometry y="34" width="160" height="26" as="geometry"/>
                </mxCell>
                <mxCell id="cZgoPWFQi2ox0ArFL1Ln-24" value="Extends" style="endArrow=block;endSize=16;endFill=0;html=1;exitX=0.5;exitY=0;exitDx=0;exitDy=0;entryX=0.215;entryY=1.135;entryDx=0;entryDy=0;entryPerimeter=0;" parent="dxG8stY99Rh0fZeCO41W-1" source="cZgoPWFQi2ox0ArFL1Ln-17" target="cZgoPWFQi2ox0ArFL1Ln-15" edge="1">
                    <mxGeometry width="160" relative="1" as="geometry">
                        <mxPoint x="220" y="430" as="sourcePoint"/>
                        <mxPoint x="380" y="430" as="targetPoint"/>
                    </mxGeometry>
                </mxCell>
                <mxCell id="cZgoPWFQi2ox0ArFL1Ln-25" value="Extends" style="endArrow=block;endSize=16;endFill=0;html=1;exitX=0.5;exitY=0;exitDx=0;exitDy=0;entryX=0.691;entryY=1.087;entryDx=0;entryDy=0;entryPerimeter=0;" parent="dxG8stY99Rh0fZeCO41W-1" source="cZgoPWFQi2ox0ArFL1Ln-21" target="cZgoPWFQi2ox0ArFL1Ln-15" edge="1">
                    <mxGeometry width="160" relative="1" as="geometry">
                        <mxPoint x="100" y="320" as="sourcePoint"/>
                        <mxPoint x="174.39999999999986" y="268.51" as="targetPoint"/>
                    </mxGeometry>
                </mxCell>
                <mxCell id="cZgoPWFQi2ox0ArFL1Ln-26" value="Restaurant" style="swimlane;fontStyle=1;align=center;verticalAlign=top;childLayout=stackLayout;horizontal=1;startSize=26;horizontalStack=0;resizeParent=1;resizeParentMax=0;resizeLast=0;collapsible=1;marginBottom=0;" parent="dxG8stY99Rh0fZeCO41W-1" vertex="1">
                    <mxGeometry x="130" y="440" width="160" height="86" as="geometry"/>
                </mxCell>
                <mxCell id="cZgoPWFQi2ox0ArFL1Ln-27" value="+ chef: Chef" style="text;strokeColor=none;fillColor=none;align=left;verticalAlign=top;spacingLeft=4;spacingRight=4;overflow=hidden;rotatable=0;points=[[0,0.5],[1,0.5]];portConstraint=eastwest;" parent="cZgoPWFQi2ox0ArFL1Ln-26" vertex="1">
                    <mxGeometry y="26" width="160" height="26" as="geometry"/>
                </mxCell>
                <mxCell id="cZgoPWFQi2ox0ArFL1Ln-28" value="" style="line;strokeWidth=1;fillColor=none;align=left;verticalAlign=middle;spacingTop=-1;spacingLeft=3;spacingRight=3;rotatable=0;labelPosition=right;points=[];portConstraint=eastwest;" parent="cZgoPWFQi2ox0ArFL1Ln-26" vertex="1">
                    <mxGeometry y="52" width="160" height="8" as="geometry"/>
                </mxCell>
                <mxCell id="cZgoPWFQi2ox0ArFL1Ln-29" value="+ cook(name:string):Dishes" style="text;strokeColor=none;fillColor=none;align=left;verticalAlign=top;spacingLeft=4;spacingRight=4;overflow=hidden;rotatable=0;points=[[0,0.5],[1,0.5]];portConstraint=eastwest;" parent="cZgoPWFQi2ox0ArFL1Ln-26" vertex="1">
                    <mxGeometry y="60" width="160" height="26" as="geometry"/>
                </mxCell>
                <mxCell id="cZgoPWFQi2ox0ArFL1Ln-33" value="" style="endArrow=diamondThin;endFill=1;endSize=24;html=1;entryX=0.496;entryY=1.135;entryDx=0;entryDy=0;entryPerimeter=0;exitX=0.5;exitY=0;exitDx=0;exitDy=0;" parent="dxG8stY99Rh0fZeCO41W-1" source="cZgoPWFQi2ox0ArFL1Ln-26" target="cZgoPWFQi2ox0ArFL1Ln-15" edge="1">
                    <mxGeometry width="160" relative="1" as="geometry">
                        <mxPoint x="150" y="410" as="sourcePoint"/>
                        <mxPoint x="310" y="410" as="targetPoint"/>
                    </mxGeometry>
                </mxCell>
            </root>
        </mxGraphModel>
    </diagram>
    <diagram id="Pk7SJ4AkBWlaZ9119YSA" name="AbstractFactory">
        <mxGraphModel dx="820" dy="648" grid="1" gridSize="10" guides="1" tooltips="1" connect="1" arrows="1" fold="1" page="1" pageScale="1" pageWidth="827" pageHeight="1169" math="0" shadow="0">
            <root>
                <mxCell id="fywjdWnwjCHSPHrpowsa-0"/>
                <mxCell id="fywjdWnwjCHSPHrpowsa-1" parent="fywjdWnwjCHSPHrpowsa-0"/>
                <mxCell id="VXfODB17lDVPRljtx-K2-0" value="Child" style="swimlane;fontStyle=3;align=center;verticalAlign=top;childLayout=stackLayout;horizontal=1;startSize=26;horizontalStack=0;resizeParent=1;resizeParentMax=0;resizeLast=0;collapsible=1;marginBottom=0;rounded=1;" vertex="1" parent="fywjdWnwjCHSPHrpowsa-1">
                    <mxGeometry x="40" y="680" width="160" height="98" as="geometry"/>
                </mxCell>
                <mxCell id="VXfODB17lDVPRljtx-K2-1" value="+ name&#10;+ age" style="text;align=left;verticalAlign=top;spacingLeft=4;spacingRight=4;overflow=hidden;rotatable=0;points=[[0,0.5],[1,0.5]];portConstraint=eastwest;rounded=1;" vertex="1" parent="VXfODB17lDVPRljtx-K2-0">
                    <mxGeometry y="26" width="160" height="64" as="geometry"/>
                </mxCell>
                <mxCell id="VXfODB17lDVPRljtx-K2-2" value="" style="line;strokeWidth=1;align=left;verticalAlign=middle;spacingTop=-1;spacingLeft=3;spacingRight=3;rotatable=0;labelPosition=right;points=[];portConstraint=eastwest;rounded=1;" vertex="1" parent="VXfODB17lDVPRljtx-K2-0">
                    <mxGeometry y="90" width="160" height="8" as="geometry"/>
                </mxCell>
                <mxCell id="VXfODB17lDVPRljtx-K2-3" value="Teacher" style="swimlane;fontStyle=3;align=center;verticalAlign=top;childLayout=stackLayout;horizontal=1;startSize=26;horizontalStack=0;resizeParent=1;resizeParentMax=0;resizeLast=0;collapsible=1;marginBottom=0;rounded=1;" vertex="1" parent="fywjdWnwjCHSPHrpowsa-1">
                    <mxGeometry x="260" y="680" width="160" height="98" as="geometry"/>
                </mxCell>
                <mxCell id="VXfODB17lDVPRljtx-K2-4" value="- id&#10;+ name&#10;+ experience" style="text;align=left;verticalAlign=top;spacingLeft=4;spacingRight=4;overflow=hidden;rotatable=0;points=[[0,0.5],[1,0.5]];portConstraint=eastwest;rounded=1;" vertex="1" parent="VXfODB17lDVPRljtx-K2-3">
                    <mxGeometry y="26" width="160" height="64" as="geometry"/>
                </mxCell>
                <mxCell id="VXfODB17lDVPRljtx-K2-5" value="" style="line;strokeWidth=1;align=left;verticalAlign=middle;spacingTop=-1;spacingLeft=3;spacingRight=3;rotatable=0;labelPosition=right;points=[];portConstraint=eastwest;rounded=1;" vertex="1" parent="VXfODB17lDVPRljtx-K2-3">
                    <mxGeometry y="90" width="160" height="8" as="geometry"/>
                </mxCell>
                <mxCell id="VXfODB17lDVPRljtx-K2-6" value="School" style="swimlane;fontStyle=3;align=center;verticalAlign=top;childLayout=stackLayout;horizontal=1;startSize=26;horizontalStack=0;resizeParent=1;resizeParentMax=0;resizeLast=0;collapsible=1;marginBottom=0;rounded=1;" vertex="1" parent="fywjdWnwjCHSPHrpowsa-1">
                    <mxGeometry x="480" y="680" width="160" height="90" as="geometry"/>
                </mxCell>
                <mxCell id="VXfODB17lDVPRljtx-K2-7" value="" style="line;strokeWidth=1;align=left;verticalAlign=middle;spacingTop=-1;spacingLeft=3;spacingRight=3;rotatable=0;labelPosition=right;points=[];portConstraint=eastwest;rounded=1;" vertex="1" parent="VXfODB17lDVPRljtx-K2-6">
                    <mxGeometry y="26" width="160" height="8" as="geometry"/>
                </mxCell>
                <mxCell id="VXfODB17lDVPRljtx-K2-8" value="+ createTeacher():Teacher&#10;+ createChild():Child" style="text;align=left;verticalAlign=top;spacingLeft=4;spacingRight=4;overflow=hidden;rotatable=0;points=[[0,0.5],[1,0.5]];portConstraint=eastwest;fontStyle=2;rounded=1;" vertex="1" parent="VXfODB17lDVPRljtx-K2-6">
                    <mxGeometry y="34" width="160" height="56" as="geometry"/>
                </mxCell>
                <mxCell id="VXfODB17lDVPRljtx-K2-9" value="Child1" style="swimlane;fontStyle=1;align=center;verticalAlign=top;childLayout=stackLayout;horizontal=1;startSize=26;horizontalStack=0;resizeParent=1;resizeParentMax=0;resizeLast=0;collapsible=1;marginBottom=0;rounded=1;" vertex="1" parent="fywjdWnwjCHSPHrpowsa-1">
                    <mxGeometry x="40" y="550" width="160" height="78" as="geometry"/>
                </mxCell>
                <mxCell id="VXfODB17lDVPRljtx-K2-10" value="+ name&#10;+ age" style="text;align=left;verticalAlign=top;spacingLeft=4;spacingRight=4;overflow=hidden;rotatable=0;points=[[0,0.5],[1,0.5]];portConstraint=eastwest;rounded=1;" vertex="1" parent="VXfODB17lDVPRljtx-K2-9">
                    <mxGeometry y="26" width="160" height="44" as="geometry"/>
                </mxCell>
                <mxCell id="VXfODB17lDVPRljtx-K2-11" value="" style="line;strokeWidth=1;align=left;verticalAlign=middle;spacingTop=-1;spacingLeft=3;spacingRight=3;rotatable=0;labelPosition=right;points=[];portConstraint=eastwest;rounded=1;" vertex="1" parent="VXfODB17lDVPRljtx-K2-9">
                    <mxGeometry y="70" width="160" height="8" as="geometry"/>
                </mxCell>
                <mxCell id="VXfODB17lDVPRljtx-K2-12" value="School1" style="swimlane;fontStyle=1;align=center;verticalAlign=top;childLayout=stackLayout;horizontal=1;startSize=26;horizontalStack=0;resizeParent=1;resizeParentMax=0;resizeLast=0;collapsible=1;marginBottom=0;rounded=1;" vertex="1" parent="fywjdWnwjCHSPHrpowsa-1">
                    <mxGeometry x="480" y="550" width="160" height="78" as="geometry"/>
                </mxCell>
                <mxCell id="VXfODB17lDVPRljtx-K2-13" value="+ createTeacher():Teacher&#10;+ createChild():Child" style="text;align=left;verticalAlign=top;spacingLeft=4;spacingRight=4;overflow=hidden;rotatable=0;points=[[0,0.5],[1,0.5]];portConstraint=eastwest;rounded=1;" vertex="1" parent="VXfODB17lDVPRljtx-K2-12">
                    <mxGeometry y="26" width="160" height="44" as="geometry"/>
                </mxCell>
                <mxCell id="VXfODB17lDVPRljtx-K2-14" value="" style="line;strokeWidth=1;align=left;verticalAlign=middle;spacingTop=-1;spacingLeft=3;spacingRight=3;rotatable=0;labelPosition=right;points=[];portConstraint=eastwest;rounded=1;" vertex="1" parent="VXfODB17lDVPRljtx-K2-12">
                    <mxGeometry y="70" width="160" height="8" as="geometry"/>
                </mxCell>
                <mxCell id="VXfODB17lDVPRljtx-K2-15" value="Teacher1" style="swimlane;fontStyle=1;align=center;verticalAlign=top;childLayout=stackLayout;horizontal=1;startSize=26;horizontalStack=0;resizeParent=1;resizeParentMax=0;resizeLast=0;collapsible=1;marginBottom=0;rounded=1;" vertex="1" parent="fywjdWnwjCHSPHrpowsa-1">
                    <mxGeometry x="260" y="550" width="160" height="78" as="geometry"/>
                </mxCell>
                <mxCell id="VXfODB17lDVPRljtx-K2-16" value="+ name&#10;+ experience" style="text;align=left;verticalAlign=top;spacingLeft=4;spacingRight=4;overflow=hidden;rotatable=0;points=[[0,0.5],[1,0.5]];portConstraint=eastwest;rounded=1;" vertex="1" parent="VXfODB17lDVPRljtx-K2-15">
                    <mxGeometry y="26" width="160" height="44" as="geometry"/>
                </mxCell>
                <mxCell id="VXfODB17lDVPRljtx-K2-17" value="" style="line;strokeWidth=1;align=left;verticalAlign=middle;spacingTop=-1;spacingLeft=3;spacingRight=3;rotatable=0;labelPosition=right;points=[];portConstraint=eastwest;rounded=1;" vertex="1" parent="VXfODB17lDVPRljtx-K2-15">
                    <mxGeometry y="70" width="160" height="8" as="geometry"/>
                </mxCell>
                <mxCell id="VXfODB17lDVPRljtx-K2-18" value="School2" style="swimlane;fontStyle=1;align=center;verticalAlign=top;childLayout=stackLayout;horizontal=1;startSize=26;horizontalStack=0;resizeParent=1;resizeParentMax=0;resizeLast=0;collapsible=1;marginBottom=0;rounded=1;" vertex="1" parent="fywjdWnwjCHSPHrpowsa-1">
                    <mxGeometry x="480" y="820" width="160" height="78" as="geometry"/>
                </mxCell>
                <mxCell id="VXfODB17lDVPRljtx-K2-19" value="+ createTeacher():Teacher&#10;+ createChild():Child" style="text;align=left;verticalAlign=top;spacingLeft=4;spacingRight=4;overflow=hidden;rotatable=0;points=[[0,0.5],[1,0.5]];portConstraint=eastwest;fontStyle=0;rounded=1;" vertex="1" parent="VXfODB17lDVPRljtx-K2-18">
                    <mxGeometry y="26" width="160" height="44" as="geometry"/>
                </mxCell>
                <mxCell id="VXfODB17lDVPRljtx-K2-20" value="" style="line;strokeWidth=1;align=left;verticalAlign=middle;spacingTop=-1;spacingLeft=3;spacingRight=3;rotatable=0;labelPosition=right;points=[];portConstraint=eastwest;rounded=1;" vertex="1" parent="VXfODB17lDVPRljtx-K2-18">
                    <mxGeometry y="70" width="160" height="8" as="geometry"/>
                </mxCell>
                <mxCell id="VXfODB17lDVPRljtx-K2-21" value="Teacher2" style="swimlane;fontStyle=1;align=center;verticalAlign=top;childLayout=stackLayout;horizontal=1;startSize=26;horizontalStack=0;resizeParent=1;resizeParentMax=0;resizeLast=0;collapsible=1;marginBottom=0;rounded=1;" vertex="1" parent="fywjdWnwjCHSPHrpowsa-1">
                    <mxGeometry x="260" y="820" width="160" height="78" as="geometry"/>
                </mxCell>
                <mxCell id="VXfODB17lDVPRljtx-K2-22" value="+ name&#10;+ experience" style="text;align=left;verticalAlign=top;spacingLeft=4;spacingRight=4;overflow=hidden;rotatable=0;points=[[0,0.5],[1,0.5]];portConstraint=eastwest;rounded=1;" vertex="1" parent="VXfODB17lDVPRljtx-K2-21">
                    <mxGeometry y="26" width="160" height="44" as="geometry"/>
                </mxCell>
                <mxCell id="VXfODB17lDVPRljtx-K2-23" value="" style="line;strokeWidth=1;align=left;verticalAlign=middle;spacingTop=-1;spacingLeft=3;spacingRight=3;rotatable=0;labelPosition=right;points=[];portConstraint=eastwest;rounded=1;" vertex="1" parent="VXfODB17lDVPRljtx-K2-21">
                    <mxGeometry y="70" width="160" height="8" as="geometry"/>
                </mxCell>
                <mxCell id="VXfODB17lDVPRljtx-K2-24" value="Child2" style="swimlane;fontStyle=1;align=center;verticalAlign=top;childLayout=stackLayout;horizontal=1;startSize=26;horizontalStack=0;resizeParent=1;resizeParentMax=0;resizeLast=0;collapsible=1;marginBottom=0;rounded=1;" vertex="1" parent="fywjdWnwjCHSPHrpowsa-1">
                    <mxGeometry x="40" y="820" width="160" height="78" as="geometry"/>
                </mxCell>
                <mxCell id="VXfODB17lDVPRljtx-K2-25" value="+ name&#10;+ age" style="text;align=left;verticalAlign=top;spacingLeft=4;spacingRight=4;overflow=hidden;rotatable=0;points=[[0,0.5],[1,0.5]];portConstraint=eastwest;rounded=1;" vertex="1" parent="VXfODB17lDVPRljtx-K2-24">
                    <mxGeometry y="26" width="160" height="44" as="geometry"/>
                </mxCell>
                <mxCell id="VXfODB17lDVPRljtx-K2-26" value="" style="line;strokeWidth=1;align=left;verticalAlign=middle;spacingTop=-1;spacingLeft=3;spacingRight=3;rotatable=0;labelPosition=right;points=[];portConstraint=eastwest;rounded=1;" vertex="1" parent="VXfODB17lDVPRljtx-K2-24">
                    <mxGeometry y="70" width="160" height="8" as="geometry"/>
                </mxCell>
                <mxCell id="VXfODB17lDVPRljtx-K2-27" value="Extends" style="endArrow=block;endSize=16;endFill=0;html=1;rounded=1;entryX=0.5;entryY=0;entryDx=0;entryDy=0;exitX=0.5;exitY=1;exitDx=0;exitDy=0;" edge="1" parent="fywjdWnwjCHSPHrpowsa-1" source="VXfODB17lDVPRljtx-K2-9" target="VXfODB17lDVPRljtx-K2-0">
                    <mxGeometry width="160" relative="1" as="geometry">
                        <mxPoint x="100" y="628" as="sourcePoint"/>
                        <mxPoint x="100" y="670" as="targetPoint"/>
                    </mxGeometry>
                </mxCell>
                <mxCell id="VXfODB17lDVPRljtx-K2-28" value="Extends" style="endArrow=block;endSize=16;endFill=0;html=1;rounded=1;exitX=0.5;exitY=1;exitDx=0;exitDy=0;" edge="1" parent="fywjdWnwjCHSPHrpowsa-1">
                    <mxGeometry width="160" relative="1" as="geometry">
                        <mxPoint x="119.5" y="818" as="sourcePoint"/>
                        <mxPoint x="119.5" y="778" as="targetPoint"/>
                    </mxGeometry>
                </mxCell>
                <mxCell id="VXfODB17lDVPRljtx-K2-29" value="Extends" style="endArrow=block;endSize=16;endFill=0;html=1;rounded=1;entryX=0.5;entryY=0;entryDx=0;entryDy=0;exitX=0.5;exitY=1;exitDx=0;exitDy=0;" edge="1" parent="fywjdWnwjCHSPHrpowsa-1">
                    <mxGeometry width="160" relative="1" as="geometry">
                        <mxPoint x="559.5" y="628" as="sourcePoint"/>
                        <mxPoint x="559.5" y="680" as="targetPoint"/>
                    </mxGeometry>
                </mxCell>
                <mxCell id="VXfODB17lDVPRljtx-K2-30" value="Extends" style="endArrow=block;endSize=16;endFill=0;html=1;rounded=1;entryX=0.5;entryY=0;entryDx=0;entryDy=0;exitX=0.5;exitY=1;exitDx=0;exitDy=0;" edge="1" parent="fywjdWnwjCHSPHrpowsa-1">
                    <mxGeometry width="160" relative="1" as="geometry">
                        <mxPoint x="339.4999999999998" y="628" as="sourcePoint"/>
                        <mxPoint x="339.4999999999998" y="680" as="targetPoint"/>
                    </mxGeometry>
                </mxCell>
                <mxCell id="VXfODB17lDVPRljtx-K2-31" value="Extends" style="endArrow=block;endSize=16;endFill=0;html=1;rounded=1;exitX=0.5;exitY=0;exitDx=0;exitDy=0;" edge="1" parent="fywjdWnwjCHSPHrpowsa-1" source="VXfODB17lDVPRljtx-K2-18">
                    <mxGeometry width="160" relative="1" as="geometry">
                        <mxPoint x="559.5" y="810" as="sourcePoint"/>
                        <mxPoint x="559.5" y="770" as="targetPoint"/>
                    </mxGeometry>
                </mxCell>
                <mxCell id="VXfODB17lDVPRljtx-K2-32" value="Extends" style="endArrow=block;endSize=16;endFill=0;html=1;rounded=1;exitX=0.5;exitY=1;exitDx=0;exitDy=0;" edge="1" parent="fywjdWnwjCHSPHrpowsa-1">
                    <mxGeometry width="160" relative="1" as="geometry">
                        <mxPoint x="339.4999999999998" y="820" as="sourcePoint"/>
                        <mxPoint x="339.4999999999998" y="780" as="targetPoint"/>
                    </mxGeometry>
                </mxCell>
                <mxCell id="VXfODB17lDVPRljtx-K2-33" value="CitySchool&#10;" style="swimlane;fontStyle=1;align=center;verticalAlign=top;childLayout=stackLayout;horizontal=1;startSize=26;horizontalStack=0;resizeParent=1;resizeParentMax=0;resizeLast=0;collapsible=1;marginBottom=0;rounded=1;" vertex="1" parent="fywjdWnwjCHSPHrpowsa-1">
                    <mxGeometry x="800" y="641" width="160" height="158" as="geometry"/>
                </mxCell>
                <mxCell id="VXfODB17lDVPRljtx-K2-34" value="+ school:  School&#10;+ teachers: absTeacher[]&#10;+ children: absChildren[]" style="text;align=left;verticalAlign=top;spacingLeft=4;spacingRight=4;overflow=hidden;rotatable=0;points=[[0,0.5],[1,0.5]];portConstraint=eastwest;fontStyle=0;rounded=1;" vertex="1" parent="VXfODB17lDVPRljtx-K2-33">
                    <mxGeometry y="26" width="160" height="54" as="geometry"/>
                </mxCell>
                <mxCell id="VXfODB17lDVPRljtx-K2-35" value="" style="line;strokeWidth=1;align=left;verticalAlign=middle;spacingTop=-1;spacingLeft=3;spacingRight=3;rotatable=0;labelPosition=right;points=[];portConstraint=eastwest;rounded=1;" vertex="1" parent="VXfODB17lDVPRljtx-K2-33">
                    <mxGeometry y="80" width="160" height="8" as="geometry"/>
                </mxCell>
                <mxCell id="VXfODB17lDVPRljtx-K2-36" value="+ createSchool():void&#10;+ createTeacher(): void&#10;+ createChild: void" style="text;align=left;verticalAlign=top;spacingLeft=4;spacingRight=4;overflow=hidden;rotatable=0;points=[[0,0.5],[1,0.5]];portConstraint=eastwest;rounded=1;" vertex="1" parent="VXfODB17lDVPRljtx-K2-33">
                    <mxGeometry y="88" width="160" height="70" as="geometry"/>
                </mxCell>
                <mxCell id="VXfODB17lDVPRljtx-K2-37" value="Композиция" style="endArrow=diamondThin;endFill=1;endSize=24;html=1;rounded=1;exitX=0.34;exitY=0.504;exitDx=0;exitDy=0;exitPerimeter=0;" edge="1" parent="fywjdWnwjCHSPHrpowsa-1" source="VXfODB17lDVPRljtx-K2-38">
                    <mxGeometry width="160" relative="1" as="geometry">
                        <mxPoint x="640" y="719.5" as="sourcePoint"/>
                        <mxPoint x="800" y="719.5" as="targetPoint"/>
                    </mxGeometry>
                </mxCell>
                <mxCell id="VXfODB17lDVPRljtx-K2-38" value="" style="strokeWidth=2;html=1;shape=mxgraph.flowchart.annotation_2;align=left;labelPosition=right;pointerEvents=1;rotation=-180;rounded=1;" vertex="1" parent="fywjdWnwjCHSPHrpowsa-1">
                    <mxGeometry x="640" y="590" width="50" height="260" as="geometry"/>
                </mxCell>
                <mxCell id="VXfODB17lDVPRljtx-K2-39" value="Зависимость" style="endArrow=open;endFill=1;endSize=12;html=1;rounded=1;entryX=0;entryY=1;entryDx=0;entryDy=0;exitX=0;exitY=0;exitDx=0;exitDy=0;" edge="1" parent="fywjdWnwjCHSPHrpowsa-1" source="VXfODB17lDVPRljtx-K2-12" target="VXfODB17lDVPRljtx-K2-40">
                    <mxGeometry width="160" relative="1" as="geometry">
                        <mxPoint x="370" y="510" as="sourcePoint"/>
                        <mxPoint x="530" y="510" as="targetPoint"/>
                    </mxGeometry>
                </mxCell>
                <mxCell id="VXfODB17lDVPRljtx-K2-40" value="" style="shape=partialRectangle;whiteSpace=wrap;html=1;bottom=1;right=1;left=1;top=0;routingCenterX=-0.5;rotation=-180;fillColor=none;rounded=1;" vertex="1" parent="fywjdWnwjCHSPHrpowsa-1">
                    <mxGeometry x="160" y="500" width="120" height="50" as="geometry"/>
                </mxCell>
                <mxCell id="VXfODB17lDVPRljtx-K2-41" value="" style="shape=partialRectangle;whiteSpace=wrap;html=1;bottom=1;right=1;left=1;top=0;routingCenterX=-0.5;rotation=0;fillColor=none;rounded=1;" vertex="1" parent="fywjdWnwjCHSPHrpowsa-1">
                    <mxGeometry x="180" y="898" width="120" height="52" as="geometry"/>
                </mxCell>
                <mxCell id="VXfODB17lDVPRljtx-K2-42" value="Зависимость" style="endArrow=open;endFill=1;endSize=12;html=1;rounded=1;exitX=0;exitY=1;exitDx=0;exitDy=0;entryX=1;entryY=1;entryDx=0;entryDy=0;" edge="1" parent="fywjdWnwjCHSPHrpowsa-1" source="VXfODB17lDVPRljtx-K2-18" target="VXfODB17lDVPRljtx-K2-41">
                    <mxGeometry width="160" relative="1" as="geometry">
                        <mxPoint x="330" y="970" as="sourcePoint"/>
                        <mxPoint x="490" y="970" as="targetPoint"/>
                    </mxGeometry>
                </mxCell>
            </root>
        </mxGraphModel>
    </diagram>
</mxfile>